<svg version="1.1" id="Layer_1" xmlns="http://www.w3.org/2000/svg" xmlns:xlink="http://www.w3.org/1999/xlink" x="0px" y="0px"
	 width="100%" viewBox="0 0 2990 597" enable-background="new 0 0 2990 597" xml:space="preserve">
<path fill="#000000" opacity="1.000000" stroke="none" 
	d="
M2200.000000,598.000000 
	C1466.666626,598.000000 733.833313,598.000000 1.000000,598.000000 
	C1.000000,399.000000 1.000000,200.000000 1.000000,1.000000 
	C997.666687,1.000000 1994.333374,1.000000 2991.000000,1.000000 
	C2991.000000,200.000000 2991.000000,399.000000 2991.000000,598.000000 
	C2727.500000,598.000000 2464.000000,598.000000 2200.000000,598.000000 
M1420.991577,209.027390 
	C1438.906372,209.027390 1456.821045,209.027390 1475.001221,209.027390 
	C1475.001221,197.725204 1475.056030,187.239838 1474.965210,176.755707 
	C1474.940430,173.889450 1475.535278,172.553680 1478.855591,171.779510 
	C1490.630371,169.034042 1502.263306,165.679657 1513.945435,162.538620 
	C1543.146606,154.687256 1572.348755,146.839432 1601.542969,138.962158 
	C1611.691284,136.223907 1621.817505,133.403214 1631.953735,130.620178 
	C1631.966064,130.194214 1631.978394,129.768250 1631.990601,129.342270 
	C1630.538574,128.854019 1629.107300,128.289017 1627.631348,127.888519 
	C1544.943359,105.448380 1462.253052,83.016563 1379.547241,60.641815 
	C1378.227905,60.284870 1376.635864,60.350685 1375.303467,60.710003 
	C1292.250977,83.108276 1209.211304,105.554581 1126.179810,128.031097 
	C1124.855957,128.389465 1123.647949,129.175827 1121.511597,130.168777 
	C1124.081177,131.007141 1125.560181,131.563171 1127.078369,131.974136 
	C1156.595825,139.964020 1186.101196,148.000656 1215.662476,155.825333 
	C1219.008057,156.710876 1220.109253,158.027496 1220.077393,161.474854 
	C1219.911133,179.470947 1220.082642,197.470261 1219.893555,215.465912 
	C1219.870239,217.687500 1218.759644,220.127563 1217.517456,222.057510 
	C1215.097290,225.817871 1214.039795,229.427994 1216.068115,233.741287 
	C1216.679810,235.042282 1216.629761,236.937851 1216.234253,238.383575 
	C1213.531982,248.262924 1210.740356,258.120270 1207.775635,267.923706 
	C1207.071167,270.253418 1206.642090,271.949646 1209.794800,271.962250 
	C1221.428345,272.008789 1233.062256,271.980774 1244.932739,271.980774 
	C1244.782837,270.706635 1244.800781,269.877808 1244.578491,269.119354 
	C1241.900024,259.981964 1238.473633,250.991669 1236.687866,241.685623 
	C1235.002808,232.904282 1234.663330,223.842865 1233.498779,214.933258 
	C1231.635620,200.678696 1233.000122,186.002243 1233.000122,171.504150 
	C1233.000122,169.745117 1233.000122,167.986084 1233.000122,166.462479 
	C1282.482666,156.143799 1331.223755,145.979752 1379.964722,135.815704 
	C1380.052002,136.219467 1380.139160,136.623245 1380.226440,137.027023 
	C1337.807373,146.396378 1295.112915,154.562042 1252.853638,164.894455 
	C1260.000610,167.575348 1266.980347,169.506165 1274.033813,171.113708 
	C1277.799316,171.971893 1279.294067,173.560806 1279.130371,177.761292 
	C1278.730347,188.018127 1278.999878,198.301071 1278.999878,209.166428 
	C1297.750000,209.166428 1315.875122,209.166428 1334.000000,210.081970 
	C1334.000000,317.946014 1334.000000,425.810089 1334.000000,533.674561 
	C1362.974731,533.674561 1391.352905,533.674561 1420.000000,533.674561 
	C1420.000000,520.047241 1419.997437,506.743744 1420.000488,493.440277 
	C1420.021973,398.668762 1420.044800,303.897278 1420.991577,209.027390 
M400.917999,331.651703 
	C402.765228,336.960693 404.841003,342.205750 406.352264,347.608734 
	C406.997498,349.915497 407.139191,352.789490 406.359863,355.000427 
	C400.422821,371.843689 394.209106,388.589508 388.065765,405.359894 
	C383.958984,416.570801 379.826538,427.772308 375.443939,439.689423 
	C374.738831,438.052643 374.302795,437.198120 373.993591,436.299957 
	C361.261139,399.311279 348.524628,362.324036 335.821533,325.325256 
	C320.875275,281.793182 305.923126,238.263046 291.111633,194.685120 
	C290.122894,191.776016 288.808319,190.928848 285.870087,190.940460 
	C259.871979,191.043365 233.873230,190.984451 207.874802,191.036423 
	C206.183716,191.039795 204.493683,191.563522 202.447479,191.904480 
	C203.263214,194.260040 203.787064,195.993591 204.455032,197.669708 
	C233.623352,270.860901 262.799622,344.048889 291.985931,417.232910 
	C306.943268,454.738007 321.920502,492.235168 336.892334,529.734497 
	C337.714905,531.794739 337.902679,534.089294 341.262360,534.066772 
	C362.260223,533.925903 383.259888,534.045044 404.257294,533.872437 
	C405.527954,533.862000 407.412506,532.351196 407.948059,531.087769 
	C412.419373,520.539429 416.644745,509.886749 420.937653,499.262848 
	C431.301971,473.613831 441.658203,447.961578 452.028198,422.314880 
	C454.491119,416.223724 456.995422,410.149323 459.883911,403.080414 
	C460.959015,405.568054 461.559021,406.890198 462.106750,408.233612 
	C478.667786,448.852386 495.262482,489.457611 511.699341,530.126587 
	C512.882812,533.054810 514.235413,534.095459 517.392090,534.072571 
	C537.223267,533.929199 557.056580,533.921753 576.887573,534.075073 
	C580.289551,534.101440 581.813110,532.870483 583.030151,529.791077 
	C594.580017,500.567017 606.264587,471.396057 617.950562,442.225922 
	C630.916504,409.860565 643.967651,377.529205 656.903687,345.151917 
	C674.695923,300.620453 692.416687,256.060425 710.163208,211.510696 
	C712.783813,204.932022 715.377747,198.342682 718.284241,190.999710 
	C715.564697,190.999710 713.924988,190.999695 712.285339,190.999695 
	C686.953430,190.999695 661.620361,191.122696 636.290649,190.887802 
	C631.659851,190.844864 629.481873,192.381866 628.030334,196.668610 
	C604.029968,267.546478 579.920715,338.387543 555.813293,409.229126 
	C552.444458,419.128571 548.956055,428.987396 545.324097,439.437592 
	C544.597534,438.407104 544.252686,438.080627 544.101929,437.680969 
	C534.001038,410.892853 523.997070,384.067688 513.740173,357.339569 
	C512.224243,353.389374 511.961578,349.970642 513.425720,345.983246 
	C522.223083,322.025421 530.819336,297.993805 539.513367,273.997955 
	C546.592163,254.460327 553.762451,234.955734 560.791687,215.400345 
	C563.580688,207.641113 566.098206,199.784317 568.876770,191.565155 
	C567.120789,191.314545 566.023804,191.022690 564.926453,191.021362 
	C542.761047,190.994614 520.595093,191.082001 498.430756,190.925400 
	C494.516541,190.897751 493.288818,193.021530 492.324249,196.077057 
	C484.919952,219.532806 477.481964,242.977936 470.053711,266.426117 
	C466.844421,276.556580 463.633331,286.686462 460.169708,297.616119 
	C459.458588,296.333588 459.182831,295.985413 459.057800,295.589691 
	C448.668915,262.696747 438.244568,229.814835 427.973419,196.885132 
	C426.689117,192.767746 425.118988,190.755157 420.151581,190.844131 
	C399.492706,191.214172 378.823364,190.995651 358.157867,191.002045 
	C351.336670,191.004150 351.055786,191.391098 353.290680,197.688828 
	C369.053009,242.105972 384.820282,286.521362 400.917999,331.651703 
M1018.501953,180.999969 
	C1014.669678,180.999969 1010.837463,180.998688 1007.005188,181.000244 
	C999.476318,181.003281 999.463318,181.003937 999.463135,188.366333 
	C999.460327,301.500153 999.461121,414.633942 999.461060,527.767761 
	C999.461060,529.721619 999.461060,531.675415 999.461060,533.576172 
	C1022.688416,533.576172 1045.237671,533.576172 1068.137451,533.576172 
	C1068.137451,520.921692 1068.137451,508.687378 1068.137451,496.024414 
	C1068.927246,496.661346 1069.389771,496.881989 1069.628174,497.248535 
	C1086.385986,523.022034 1110.891235,536.095154 1140.784546,538.785339 
	C1164.453125,540.915344 1187.244019,536.840515 1208.429199,524.994385 
	C1230.205444,512.817932 1245.907715,495.047546 1256.787231,473.104279 
	C1270.336426,445.776306 1273.560547,416.481812 1269.835938,386.504089 
	C1267.323364,366.281952 1261.041504,347.111115 1250.793945,329.312378 
	C1230.139771,293.438690 1191.744629,270.060974 1147.436523,275.785706 
	C1125.708496,278.593048 1107.096191,286.804962 1091.925415,302.551941 
	C1087.170898,307.486847 1082.893555,312.881317 1077.877930,318.664856 
	C1077.877930,272.514862 1077.877930,226.974716 1077.877930,180.999969 
	C1058.084351,180.999969 1038.792725,180.999969 1018.501953,180.999969 
M2136.352539,533.999939 
	C2137.795410,533.917725 2139.238281,533.835571 2141.000000,533.735168 
	C2141.000000,531.625732 2141.000000,529.820496 2141.000000,528.015259 
	C2141.000000,483.024841 2140.985596,438.034363 2141.043457,393.044037 
	C2141.046387,390.797424 2141.224121,388.357239 2142.088623,386.335663 
	C2150.335205,367.051910 2163.928467,352.537323 2183.985352,346.370117 
	C2202.084473,340.804810 2219.722412,348.005157 2225.677979,369.059875 
	C2227.975342,377.182739 2228.802002,385.953918 2228.859131,394.439392 
	C2229.159668,439.094543 2229.000000,483.752747 2229.000000,528.409912 
	C2229.000000,530.175903 2229.000000,531.941833 2229.000000,533.647827 
	C2255.676758,533.647827 2281.731201,533.647827 2308.000000,533.647827 
	C2308.000000,531.477966 2308.000000,529.659180 2308.000000,527.840393 
	C2308.000000,481.183655 2307.958740,434.526855 2308.020996,387.870209 
	C2308.044922,369.880035 2307.612549,351.906250 2303.931885,334.246613 
	C2299.076172,310.948456 2287.283691,292.379578 2265.094238,282.066284 
	C2248.927246,274.552155 2231.714355,273.831055 2214.195557,275.918152 
	C2186.867432,279.173889 2164.372559,291.110718 2146.922607,312.447968 
	C2145.138184,314.629944 2143.356445,316.813812 2140.658936,320.116028 
	C2140.658936,272.873871 2140.658936,227.137405 2140.658936,181.000015 
	C2138.538086,181.000015 2136.898682,181.000015 2135.259277,181.000015 
	C2112.930664,181.000015 2090.600098,181.158676 2068.274902,180.880356 
	C2063.158691,180.816559 2061.885498,182.304535 2061.891846,187.332993 
	C2062.032959,300.975281 2062.000000,414.617798 2062.000000,528.260254 
	C2062.000000,530.040588 2062.000000,531.820923 2062.000000,534.000000 
	C2086.801514,534.000000 2111.089600,534.000000 2136.352539,533.999939 
M822.689941,274.999756 
	C817.109375,275.633728 811.517822,276.184509 805.950012,276.915802 
	C779.255066,280.421936 755.775513,291.159424 735.921326,309.256012 
	C710.027771,332.857422 697.273560,363.116882 694.273071,397.417938 
	C693.228882,409.355164 694.273376,421.734039 696.176392,433.621063 
	C701.627625,467.673126 718.615173,495.003876 747.018738,514.776489 
	C766.537659,528.364258 788.299683,535.957581 812.087402,538.097961 
	C830.982605,539.798096 849.691528,539.537903 868.240112,535.360168 
	C888.731445,530.744934 907.171265,522.049133 923.344971,508.402435 
	C935.731995,497.950806 945.966003,486.015289 953.055542,470.826691 
	C951.502563,470.149597 950.233643,469.412811 948.865784,469.027618 
	C929.199341,463.489594 909.505676,458.047760 889.858582,452.442627 
	C887.001953,451.627686 885.832581,452.445343 884.493774,454.986481 
	C882.661560,458.464172 880.448120,461.909943 877.727661,464.720306 
	C868.127014,474.638428 855.973816,479.366394 842.497375,481.182648 
	C819.805847,484.240845 800.917114,477.410034 786.837769,459.136627 
	C780.916931,451.451935 778.424072,442.270813 777.971985,432.000275 
	C780.458191,432.000275 782.424805,432.000275 784.391357,432.000275 
	C842.214172,432.000275 900.037048,432.000610 957.859863,431.998413 
	C959.359192,431.998352 960.953064,432.277649 962.326782,431.854767 
	C963.348755,431.540100 964.615234,430.425018 964.847961,429.446503 
	C965.490356,426.745575 965.955444,423.928040 965.945007,421.158691 
	C965.888123,406.120636 966.475220,391.123962 963.147156,376.182587 
	C954.530945,337.499756 933.178772,308.614288 898.169617,290.102112 
	C874.887756,277.791168 849.672119,274.214752 822.689941,274.999756 
M1593.500000,432.000214 
	C1646.596069,432.000214 1699.692017,432.000214 1752.511108,432.000214 
	C1753.075684,428.436646 1753.909424,425.536713 1753.934082,422.629944 
	C1754.082520,405.144318 1754.673828,387.658142 1750.047119,370.468109 
	C1743.266113,345.274353 1730.690918,323.592438 1710.926758,306.589539 
	C1687.504761,286.439667 1659.668335,276.831970 1629.075317,275.064636 
	C1612.817261,274.125458 1596.518188,275.085175 1580.758301,279.176544 
	C1519.535034,295.070343 1487.239990,342.440247 1482.276611,397.936920 
	C1481.083130,411.280304 1482.035522,424.628845 1484.831177,437.919830 
	C1498.567871,503.228577 1552.662476,535.618774 1606.821411,538.861633 
	C1617.358154,539.492554 1628.080688,539.018738 1638.574707,537.812500 
	C1649.353882,536.573486 1660.327759,534.919006 1670.564453,531.496338 
	C1694.381348,523.533142 1714.392456,509.519501 1729.830688,489.525482 
	C1734.236694,483.819244 1737.727051,477.405884 1741.700684,471.218170 
	C1740.185791,470.292297 1739.548218,469.688049 1738.799683,469.476471 
	C1718.293335,463.679016 1697.791016,457.864655 1677.218506,452.310242 
	C1676.081421,452.003204 1673.974243,453.603271 1672.959839,454.841156 
	C1669.825806,458.665161 1667.635498,463.498535 1663.947632,466.591309 
	C1648.890381,479.218628 1631.465820,484.105774 1611.879761,481.066376 
	C1596.833862,478.731537 1584.378540,471.975800 1575.310913,459.689758 
	C1569.374756,451.646576 1566.464355,442.408539 1565.949097,432.000214 
	C1575.216431,432.000214 1583.858154,432.000214 1593.500000,432.000214 
M2885.942139,485.333191 
	C2889.707031,478.351898 2893.705566,471.484955 2897.189453,464.366119 
	C2904.749512,448.917847 2908.062256,432.282532 2908.800049,415.302795 
	C2909.233398,405.330200 2908.231689,395.196899 2906.905029,385.265533 
	C2903.582275,360.388977 2893.601074,338.361389 2877.038574,319.411011 
	C2852.033936,290.801575 2819.777588,277.303619 2782.533936,275.202881 
	C2771.048584,274.555054 2759.356201,275.722687 2747.882324,277.093109 
	C2721.949951,280.190460 2699.123047,291.000671 2679.629883,308.080078 
	C2650.459473,333.638489 2637.830811,367.090179 2636.144775,405.078949 
	C2635.804932,412.729767 2637.126953,420.486267 2638.027100,428.153625 
	C2639.973633,444.738495 2644.988525,460.457397 2653.356934,474.858551 
	C2677.189697,515.870300 2714.331787,535.272217 2760.441650,538.828674 
	C2777.344971,540.132507 2794.361084,539.193420 2811.016113,535.021973 
	C2833.233887,529.457397 2853.264893,519.771362 2869.746094,503.629028 
	C2875.379150,498.112030 2880.295410,491.863434 2885.942139,485.333191 
M2584.011719,300.498566 
	C2571.320557,283.479553 2553.605225,275.832642 2533.123047,275.253723 
	C2520.317627,274.891815 2507.285156,276.070801 2494.635986,278.217224 
	C2475.638428,281.440857 2458.376953,289.318298 2443.959717,302.447418 
	C2438.404785,307.505890 2433.450928,313.224640 2427.753174,319.129791 
	C2427.753174,305.853943 2427.753174,292.980713 2427.753174,279.999939 
	C2405.879883,279.999939 2384.550293,280.170258 2363.227051,279.877472 
	C2358.043701,279.806335 2356.883789,281.416382 2356.893066,286.381531 
	C2357.043945,367.033569 2357.000000,447.685974 2357.000000,528.338318 
	C2357.000000,530.111206 2357.000000,531.884155 2357.000000,533.672241 
	C2383.626465,533.672241 2409.680908,533.672241 2436.000000,533.672241 
	C2436.000000,531.533813 2436.000000,529.721497 2436.000000,527.909119 
	C2436.000000,482.583862 2435.990967,437.258575 2436.033447,391.933350 
	C2436.035156,390.180847 2436.195312,388.292419 2436.845703,386.697327 
	C2444.383057,368.213623 2457.444580,355.223328 2475.888184,347.552673 
	C2492.576660,340.611877 2510.923340,346.380920 2517.672119,361.813690 
	C2520.641846,368.604553 2522.703613,376.395233 2522.772217,383.754425 
	C2523.222168,431.908356 2523.013184,480.068420 2523.019531,528.226501 
	C2523.019775,530.009033 2523.019531,531.791626 2523.019531,533.699341 
	C2549.576904,533.699341 2575.628418,533.699341 2602.000000,533.699341 
	C2602.000000,531.596252 2602.000000,529.791016 2602.000000,527.985718 
	C2602.000000,478.327881 2602.126465,428.669495 2601.909180,379.012604 
	C2601.856689,366.982452 2600.918213,354.937317 2599.946045,342.934814 
	C2598.702637,327.586121 2593.303711,313.644531 2584.011719,300.498566 
M1844.608398,289.016907 
	C1828.911621,296.881897 1814.953003,306.932373 1803.707520,320.623199 
	C1775.168701,355.367371 1767.159546,395.109985 1776.231445,438.327850 
	C1782.573486,468.541168 1798.286255,493.535339 1823.435059,512.019714 
	C1843.755859,526.955688 1866.368530,535.782959 1891.670166,538.159058 
	C1908.261719,539.717102 1924.729614,539.403992 1941.043823,536.777771 
	C1955.670532,534.423340 1969.592407,529.299683 1982.479248,521.820923 
	C2001.869385,510.567993 2017.356079,495.416626 2027.802490,475.410309 
	C2028.569336,473.941650 2028.735352,472.159210 2029.199829,470.452484 
	C2005.259766,463.160675 1981.858521,456.197357 1958.595825,448.798340 
	C1954.328613,447.441162 1952.469727,448.338440 1950.180664,451.871307 
	C1947.876221,455.428040 1944.810181,458.687653 1941.497803,461.358002 
	C1931.741211,469.223328 1920.484863,472.414307 1907.879272,472.102081 
	C1890.666382,471.675781 1876.718506,464.571991 1867.246338,450.804352 
	C1849.383911,424.841797 1848.827271,397.040649 1863.121094,369.446594 
	C1872.544067,351.255798 1889.060181,342.408875 1909.259766,342.206299 
	C1925.959473,342.038757 1940.157349,348.621155 1949.771240,363.031952 
	C1951.521851,365.656036 1953.572388,366.672974 1956.435181,365.797607 
	C1980.596802,358.409546 2004.741699,350.966705 2028.979858,343.513153 
	C2028.813599,342.932251 2028.753418,342.434906 2028.539429,342.016113 
	C2014.901855,315.327087 1994.143921,296.244965 1966.451904,284.999542 
	C1943.383911,275.631927 1919.260010,273.690582 1894.575317,275.754944 
	C1877.317383,277.198273 1860.874023,281.152802 1844.608398,289.016907 
M93.000092,240.500000 
	C93.000092,338.207520 93.000092,435.915039 93.000092,533.578125 
	C120.387222,533.578125 147.084488,533.578125 173.728760,533.578125 
	C173.728760,419.278687 173.728760,305.401276 173.728760,191.345581 
	C172.862442,191.213303 172.233948,191.033890 171.605316,191.033386 
	C146.785995,191.013306 121.966385,191.065186 97.147591,190.946213 
	C93.218636,190.927383 92.953094,193.010117 92.968163,196.024536 
	C93.040581,210.516052 93.000336,225.008118 93.000092,240.500000 
M82.050339,112.601410 
	C82.315704,121.682304 84.813858,130.287735 89.484161,137.891357 
	C101.946007,158.180237 126.412720,168.119461 150.346741,160.032440 
	C155.810669,158.186234 160.698334,154.595825 165.792099,151.704041 
	C170.651627,148.945282 172.913589,144.013367 176.184784,139.800781 
	C182.514572,131.649323 184.641861,122.450020 184.790909,112.906097 
	C184.960815,102.025604 182.084839,92.052002 175.687866,82.356750 
	C164.352936,65.177498 148.114929,59.692852 129.412674,60.311073 
	C116.796402,60.728104 105.566620,66.904182 96.686150,76.122139 
	C90.116776,82.941170 85.955597,91.393776 83.482880,100.515274 
	C82.509811,104.104797 82.510918,107.958405 82.050339,112.601410 
z"/>
<path fill="#0470B6" opacity="1.000000" stroke="none" 
	d="
M400.751953,331.294495 
	C384.820282,286.521362 369.053009,242.105972 353.290680,197.688828 
	C351.055786,191.391098 351.336670,191.004150 358.157867,191.002045 
	C378.823364,190.995651 399.492706,191.214172 420.151581,190.844131 
	C425.118988,190.755157 426.689117,192.767746 427.973419,196.885132 
	C438.244568,229.814835 448.668915,262.696747 459.057800,295.589691 
	C459.182831,295.985413 459.458588,296.333588 460.169708,297.616119 
	C463.633331,286.686462 466.844421,276.556580 470.053711,266.426117 
	C477.481964,242.977936 484.919952,219.532806 492.324249,196.077057 
	C493.288818,193.021530 494.516541,190.897751 498.430756,190.925400 
	C520.595093,191.082001 542.761047,190.994614 564.926453,191.021362 
	C566.023804,191.022690 567.120789,191.314545 568.876770,191.565155 
	C566.098206,199.784317 563.580688,207.641113 560.791687,215.400345 
	C553.762451,234.955734 546.592163,254.460327 539.513367,273.997955 
	C530.819336,297.993805 522.223083,322.025421 513.425720,345.983246 
	C511.961578,349.970642 512.224243,353.389374 513.740173,357.339569 
	C523.997070,384.067688 534.001038,410.892853 544.101929,437.680969 
	C544.252686,438.080627 544.597534,438.407104 545.324097,439.437592 
	C548.956055,428.987396 552.444458,419.128571 555.813293,409.229126 
	C579.920715,338.387543 604.029968,267.546478 628.030334,196.668610 
	C629.481873,192.381866 631.659851,190.844864 636.290649,190.887802 
	C661.620361,191.122696 686.953430,190.999695 712.285339,190.999695 
	C713.924988,190.999695 715.564697,190.999710 718.284241,190.999710 
	C715.377747,198.342682 712.783813,204.932022 710.163208,211.510696 
	C692.416687,256.060425 674.695923,300.620453 656.903687,345.151917 
	C643.967651,377.529205 630.916504,409.860565 617.950562,442.225922 
	C606.264587,471.396057 594.580017,500.567017 583.030151,529.791077 
	C581.813110,532.870483 580.289551,534.101440 576.887573,534.075073 
	C557.056580,533.921753 537.223267,533.929199 517.392090,534.072571 
	C514.235413,534.095459 512.882812,533.054810 511.699341,530.126587 
	C495.262482,489.457611 478.667786,448.852386 462.106750,408.233612 
	C461.559021,406.890198 460.959015,405.568054 459.883911,403.080414 
	C456.995422,410.149323 454.491119,416.223724 452.028198,422.314880 
	C441.658203,447.961578 431.301971,473.613831 420.937653,499.262848 
	C416.644745,509.886749 412.419373,520.539429 407.948059,531.087769 
	C407.412506,532.351196 405.527954,533.862000 404.257294,533.872437 
	C383.259888,534.045044 362.260223,533.925903 341.262360,534.066772 
	C337.902679,534.089294 337.714905,531.794739 336.892334,529.734497 
	C321.920502,492.235168 306.943268,454.738007 291.985931,417.232910 
	C262.799622,344.048889 233.623352,270.860901 204.455032,197.669708 
	C203.787064,195.993591 203.263214,194.260040 202.447479,191.904480 
	C204.493683,191.563522 206.183716,191.039795 207.874802,191.036423 
	C233.873230,190.984451 259.871979,191.043365 285.870087,190.940460 
	C288.808319,190.928848 290.122894,191.776016 291.111633,194.685120 
	C305.923126,238.263046 320.875275,281.793182 335.821533,325.325256 
	C348.524628,362.324036 361.261139,399.311279 373.993591,436.299957 
	C374.302795,437.198120 374.738831,438.052643 375.443939,439.689423 
	C379.826538,427.772308 383.958984,416.570801 388.065765,405.359894 
	C394.209106,388.589508 400.422821,371.843689 406.359863,355.000427 
	C407.139191,352.789490 406.997498,349.915497 406.352264,347.608734 
	C404.841003,342.205750 402.765228,336.960693 400.751953,331.294495 
z"/>
<path fill="#0470B6" opacity="1.000000" stroke="none" 
	d="
M1019.001526,180.999969 
	C1038.792725,180.999969 1058.084351,180.999969 1077.877930,180.999969 
	C1077.877930,226.974716 1077.877930,272.514862 1077.877930,318.664856 
	C1082.893555,312.881317 1087.170898,307.486847 1091.925415,302.551941 
	C1107.096191,286.804962 1125.708496,278.593048 1147.436523,275.785706 
	C1191.744629,270.060974 1230.139771,293.438690 1250.793945,329.312378 
	C1261.041504,347.111115 1267.323364,366.281952 1269.835938,386.504089 
	C1273.560547,416.481812 1270.336426,445.776306 1256.787231,473.104279 
	C1245.907715,495.047546 1230.205444,512.817932 1208.429199,524.994385 
	C1187.244019,536.840515 1164.453125,540.915344 1140.784546,538.785339 
	C1110.891235,536.095154 1086.385986,523.022034 1069.628174,497.248535 
	C1069.389771,496.881989 1068.927246,496.661346 1068.137451,496.024414 
	C1068.137451,508.687378 1068.137451,520.921692 1068.137451,533.576172 
	C1045.237671,533.576172 1022.688416,533.576172 999.461060,533.576172 
	C999.461060,531.675415 999.461060,529.721619 999.461060,527.767761 
	C999.461121,414.633942 999.460327,301.500153 999.463135,188.366333 
	C999.463318,181.003937 999.476318,181.003281 1007.005188,181.000244 
	C1010.837463,180.998688 1014.669678,180.999969 1019.001526,180.999969 
M1186.604248,385.030060 
	C1183.173706,375.247406 1178.560303,366.164948 1171.302856,358.579529 
	C1155.687866,342.259308 1131.316650,336.516602 1110.429688,348.897064 
	C1098.207153,356.141815 1089.223145,366.460754 1082.110352,378.591919 
	C1078.936646,384.004974 1077.679810,389.667664 1077.882935,396.028961 
	C1078.280884,408.502838 1077.923096,420.999298 1078.071777,433.484100 
	C1078.098022,435.691284 1078.604980,438.144012 1079.668457,440.048828 
	C1091.033691,460.407349 1107.905884,471.909607 1131.760010,472.007111 
	C1154.920898,472.101807 1171.593140,461.247833 1182.381104,441.287628 
	C1191.949097,423.584534 1192.015137,404.826599 1186.604248,385.030060 
z"/>
<path fill="#F3951E" opacity="1.000000" stroke="none" 
	d="
M2135.865234,534.000000 
	C2111.089600,534.000000 2086.801514,534.000000 2062.000000,534.000000 
	C2062.000000,531.820923 2062.000000,530.040588 2062.000000,528.260254 
	C2062.000000,414.617798 2062.032959,300.975281 2061.891846,187.332993 
	C2061.885498,182.304535 2063.158691,180.816559 2068.274902,180.880356 
	C2090.600098,181.158676 2112.930664,181.000015 2135.259277,181.000015 
	C2136.898682,181.000015 2138.538086,181.000015 2140.658936,181.000015 
	C2140.658936,227.137405 2140.658936,272.873871 2140.658936,320.116028 
	C2143.356445,316.813812 2145.138184,314.629944 2146.922607,312.447968 
	C2164.372559,291.110718 2186.867432,279.173889 2214.195557,275.918152 
	C2231.714355,273.831055 2248.927246,274.552155 2265.094238,282.066284 
	C2287.283691,292.379578 2299.076172,310.948456 2303.931885,334.246613 
	C2307.612549,351.906250 2308.044922,369.880035 2308.020996,387.870209 
	C2307.958740,434.526855 2308.000000,481.183655 2308.000000,527.840393 
	C2308.000000,529.659180 2308.000000,531.477966 2308.000000,533.647827 
	C2281.731201,533.647827 2255.676758,533.647827 2229.000000,533.647827 
	C2229.000000,531.941833 2229.000000,530.175903 2229.000000,528.409912 
	C2229.000000,483.752747 2229.159668,439.094543 2228.859131,394.439392 
	C2228.802002,385.953918 2227.975342,377.182739 2225.677979,369.059875 
	C2219.722412,348.005157 2202.084473,340.804810 2183.985352,346.370117 
	C2163.928467,352.537323 2150.335205,367.051910 2142.088623,386.335663 
	C2141.224121,388.357239 2141.046387,390.797424 2141.043457,393.044037 
	C2140.985596,438.034363 2141.000000,483.024841 2141.000000,528.015259 
	C2141.000000,529.820496 2141.000000,531.625732 2141.000000,533.735168 
	C2139.238281,533.835571 2137.795410,533.917725 2135.865234,534.000000 
z"/>
<path fill="#0470B6" opacity="1.000000" stroke="none" 
	d="
M1334.000366,209.166428 
	C1315.875122,209.166428 1297.750000,209.166428 1278.999878,209.166428 
	C1278.999878,198.301071 1278.730347,188.018127 1279.130371,177.761292 
	C1279.294067,173.560806 1277.799316,171.971893 1274.033813,171.113708 
	C1266.980347,169.506165 1260.000610,167.575348 1252.853638,164.894455 
	C1295.112915,154.562042 1337.807373,146.396378 1380.226440,137.027023 
	C1380.139160,136.623245 1380.052002,136.219467 1379.964722,135.815704 
	C1331.223755,145.979752 1282.482666,156.143799 1233.000122,166.462479 
	C1233.000122,167.986084 1233.000122,169.745117 1233.000122,171.504150 
	C1233.000122,186.002243 1231.635620,200.678696 1233.498779,214.933258 
	C1234.663330,223.842865 1235.002808,232.904282 1236.687866,241.685623 
	C1238.473633,250.991669 1241.900024,259.981964 1244.578491,269.119354 
	C1244.800781,269.877808 1244.782837,270.706635 1244.932739,271.980774 
	C1233.062256,271.980774 1221.428345,272.008789 1209.794800,271.962250 
	C1206.642090,271.949646 1207.071167,270.253418 1207.775635,267.923706 
	C1210.740356,258.120270 1213.531982,248.262924 1216.234253,238.383575 
	C1216.629761,236.937851 1216.679810,235.042282 1216.068115,233.741287 
	C1214.039795,229.427994 1215.097290,225.817871 1217.517456,222.057510 
	C1218.759644,220.127563 1219.870239,217.687500 1219.893555,215.465912 
	C1220.082642,197.470261 1219.911133,179.470947 1220.077393,161.474854 
	C1220.109253,158.027496 1219.008057,156.710876 1215.662476,155.825333 
	C1186.101196,148.000656 1156.595825,139.964020 1127.078369,131.974136 
	C1125.560181,131.563171 1124.081177,131.007141 1121.511597,130.168777 
	C1123.647949,129.175827 1124.855957,128.389465 1126.179810,128.031097 
	C1209.211304,105.554581 1292.250977,83.108276 1375.303467,60.710003 
	C1376.635864,60.350685 1378.227905,60.284870 1379.547241,60.641815 
	C1462.253052,83.016563 1544.943359,105.448380 1627.631348,127.888519 
	C1629.107300,128.289017 1630.538574,128.854019 1631.990601,129.342270 
	C1631.978394,129.768250 1631.966064,130.194214 1631.953735,130.620178 
	C1621.817505,133.403214 1611.691284,136.223907 1601.542969,138.962158 
	C1572.348755,146.839432 1543.146606,154.687256 1513.945435,162.538620 
	C1502.263306,165.679657 1490.630371,169.034042 1478.855591,171.779510 
	C1475.535278,172.553680 1474.940430,173.889450 1474.965210,176.755707 
	C1475.056030,187.239838 1475.001221,197.725204 1475.001221,209.027390 
	C1456.821045,209.027390 1438.906372,209.027390 1420.426880,209.015320 
	C1419.862183,209.003235 1419.716675,208.813751 1419.413330,208.571198 
	C1405.844849,208.239182 1392.579712,208.133438 1379.314331,208.104401 
	C1378.590454,208.102814 1377.865112,208.741333 1377.080444,209.514160 
	C1376.981567,216.998138 1376.981567,216.989029 1383.964355,217.004272 
	C1386.944702,217.010773 1389.925171,217.064240 1392.943359,217.556305 
	C1392.987549,249.640854 1392.978516,281.265472 1393.044678,312.889954 
	C1393.048218,314.540314 1393.691284,316.189362 1394.474365,317.907715 
	C1397.958862,317.366882 1401.815918,317.689026 1403.852295,315.917999 
	C1406.549805,313.572021 1409.244873,312.157379 1412.204102,313.193146 
	C1414.453369,313.980408 1417.344238,316.330719 1417.665894,318.349335 
	C1418.047852,320.747559 1416.598145,324.122375 1414.810425,325.991577 
	C1412.969849,327.916046 1409.474121,329.660400 1407.036377,326.632751 
	C1403.398193,322.114258 1398.751221,322.847443 1393.642822,323.329346 
	C1393.173706,336.393707 1393.083618,349.289734 1393.059937,362.185852 
	C1393.058472,362.921539 1393.598267,363.658234 1394.122925,364.641724 
	C1398.601074,368.323029 1399.428589,373.022308 1396.380859,376.365540 
	C1393.361694,379.677368 1388.534912,379.793976 1385.370605,376.631439 
	C1381.937500,373.200256 1382.438232,369.212219 1386.274292,365.029907 
	C1387.402832,363.799469 1387.927490,361.582275 1387.931030,359.815765 
	C1388.018921,315.417084 1388.002319,271.018219 1387.989380,226.619370 
	C1387.989014,225.175369 1387.833374,223.731384 1387.745117,222.200684 
	C1386.791138,222.117157 1386.149414,222.007141 1385.508911,222.014435 
	C1383.017822,222.042816 1380.527222,222.108444 1377.642822,222.328476 
	C1377.170166,251.761368 1377.081299,281.026001 1377.063354,310.290649 
	C1377.062866,311.113129 1377.820435,311.936066 1378.511475,312.966095 
	C1379.051880,313.389893 1379.342651,313.575317 1379.553345,313.827484 
	C1382.970825,317.917267 1382.940308,322.282349 1379.484863,325.274872 
	C1376.468506,327.887115 1371.860596,327.666077 1369.074585,324.775513 
	C1365.955933,321.539795 1366.515625,317.037598 1370.025024,313.266205 
	C1371.171143,312.034485 1371.913452,309.922028 1371.919434,308.209167 
	C1372.029541,276.543427 1372.002563,244.877243 1371.990601,213.211151 
	C1371.990112,211.921478 1371.854126,210.631866 1371.766479,209.081314 
	C1368.690552,209.081314 1365.893799,209.081314 1362.785400,209.356689 
	C1362.316406,211.107590 1362.021851,212.583054 1362.021240,214.058655 
	C1361.997925,272.937531 1361.991821,331.816406 1362.047485,390.695282 
	C1362.049072,392.415497 1362.735962,394.135101 1363.562744,395.912415 
	C1372.556152,395.979523 1381.090576,396.038971 1389.623535,395.952026 
	C1391.121582,395.936768 1392.613159,395.307831 1394.368652,394.741516 
	C1398.898193,390.163269 1403.107910,389.729218 1406.631836,393.283142 
	C1408.783569,395.453217 1408.680176,401.602936 1406.454468,403.829102 
	C1403.074707,407.209595 1398.846924,406.760284 1394.809937,402.705353 
	C1394.075195,401.967499 1393.008911,401.092072 1392.086182,401.081177 
	C1382.176880,400.964325 1372.265625,401.008392 1362.000854,401.008392 
	C1362.000854,407.335785 1362.149414,413.123566 1361.944946,418.898895 
	C1361.822754,422.350006 1363.383423,423.123047 1366.452515,423.047729 
	C1372.262817,422.905151 1378.080078,423.048187 1383.936768,423.534363 
	C1383.986328,437.795776 1383.962158,451.595520 1384.045898,465.394653 
	C1384.054932,466.878082 1384.691284,468.357666 1385.465576,469.907593 
	C1389.666870,470.064819 1393.192871,470.372955 1396.038452,466.589020 
	C1398.359253,463.502747 1404.967163,464.372833 1407.086304,467.345520 
	C1409.396606,470.586365 1408.121704,476.572968 1404.678101,478.653595 
	C1400.585693,481.126221 1398.379883,480.398010 1393.756714,474.769104 
	C1390.453735,474.413513 1387.382935,474.413513 1383.957397,474.413513 
	C1383.957397,480.115417 1383.835083,485.261414 1384.010010,490.397247 
	C1384.095337,492.902924 1384.735107,495.389679 1385.416504,498.084351 
	C1385.968872,498.491058 1386.263428,498.667084 1386.483521,498.910431 
	C1390.004883,502.804718 1390.084106,507.225403 1386.698853,510.320557 
	C1383.638794,513.118286 1378.995117,512.858154 1375.959351,509.719025 
	C1372.782959,506.434479 1373.340576,502.500580 1377.019043,498.602417 
	C1378.172241,497.380280 1378.905396,495.256989 1378.917114,493.539886 
	C1379.048218,474.407318 1379.000000,455.273468 1379.000000,436.139984 
	C1379.000000,433.537842 1379.000000,430.935699 1379.000000,428.076233 
	C1373.301147,428.076233 1368.174438,428.076233 1362.763550,428.118042 
	C1362.369141,440.202789 1362.245728,452.245667 1362.189941,464.288849 
	C1362.187378,464.845642 1362.789307,465.405243 1363.429199,466.126892 
	C1368.326782,468.550934 1367.548950,472.880768 1366.606812,476.290253 
	C1366.069580,478.233887 1362.568604,480.925262 1360.867798,480.626862 
	C1358.059326,480.134094 1354.946899,478.004181 1353.182617,475.649902 
	C1349.785889,471.117126 1354.153564,468.675232 1357.262939,465.764648 
	C1357.754639,463.883484 1357.984131,462.232941 1357.984619,460.582336 
	C1358.002319,388.130280 1358.000366,315.678223 1357.996826,243.226166 
	C1357.996826,241.894440 1358.151367,240.514984 1357.851440,239.248367 
	C1357.662354,238.450714 1356.740601,237.203262 1356.180664,237.220718 
	C1353.164185,237.314835 1350.158081,237.741806 1347.084961,238.515381 
	C1347.014282,295.534607 1346.985596,352.092438 1347.097534,408.650024 
	C1347.101196,410.465668 1348.191528,412.569427 1349.392090,414.032745 
	C1351.991943,417.201630 1352.065308,423.023407 1349.145630,425.524719 
	C1345.940063,428.270966 1340.894165,427.654205 1338.059326,424.169464 
	C1334.593872,419.909760 1335.149658,417.633270 1341.183716,412.652771 
	C1341.699951,410.289612 1341.978760,408.146301 1341.980957,406.002686 
	C1342.040161,348.360687 1342.071167,290.718628 1342.566284,233.043854 
	C1347.599243,233.011093 1352.172852,233.011093 1356.662842,233.011093 
	C1356.662842,224.638794 1356.662842,216.939011 1356.662842,209.166428 
	C1348.884521,209.166428 1341.442505,209.166428 1334.000366,209.166428 
z"/>
<path fill="#0470B6" opacity="1.000000" stroke="none" 
	d="
M823.171204,274.999756 
	C849.672119,274.214752 874.887756,277.791168 898.169617,290.102112 
	C933.178772,308.614288 954.530945,337.499756 963.147156,376.182587 
	C966.475220,391.123962 965.888123,406.120636 965.945007,421.158691 
	C965.955444,423.928040 965.490356,426.745575 964.847961,429.446503 
	C964.615234,430.425018 963.348755,431.540100 962.326782,431.854767 
	C960.953064,432.277649 959.359192,431.998352 957.859863,431.998413 
	C900.037048,432.000610 842.214172,432.000275 784.391357,432.000275 
	C782.424805,432.000275 780.458191,432.000275 777.971985,432.000275 
	C778.424072,442.270813 780.916931,451.451935 786.837769,459.136627 
	C800.917114,477.410034 819.805847,484.240845 842.497375,481.182648 
	C855.973816,479.366394 868.127014,474.638428 877.727661,464.720306 
	C880.448120,461.909943 882.661560,458.464172 884.493774,454.986481 
	C885.832581,452.445343 887.001953,451.627686 889.858582,452.442627 
	C909.505676,458.047760 929.199341,463.489594 948.865784,469.027618 
	C950.233643,469.412811 951.502563,470.149597 953.055542,470.826691 
	C945.966003,486.015289 935.731995,497.950806 923.344971,508.402435 
	C907.171265,522.049133 888.731445,530.744934 868.240112,535.360168 
	C849.691528,539.537903 830.982605,539.798096 812.087402,538.097961 
	C788.299683,535.957581 766.537659,528.364258 747.018738,514.776489 
	C718.615173,495.003876 701.627625,467.673126 696.176392,433.621063 
	C694.273376,421.734039 693.228882,409.355164 694.273071,397.417938 
	C697.273560,363.116882 710.027771,332.857422 735.921326,309.256012 
	C755.775513,291.159424 779.255066,280.421936 805.950012,276.915802 
	C811.517822,276.184509 817.109375,275.633728 823.171204,274.999756 
M847.500000,382.000000 
	C859.233215,382.000000 870.966492,382.000000 882.762085,382.000000 
	C879.057495,349.745697 855.998474,331.227142 827.675110,332.084412 
	C801.160339,332.886963 779.386414,352.348816 776.639648,382.000000 
	C799.945007,382.000000 823.222534,382.000000 847.500000,382.000000 
z"/>
<path fill="#F3951E" opacity="1.000000" stroke="none" 
	d="
M1593.000000,432.000214 
	C1583.858154,432.000214 1575.216431,432.000214 1565.949097,432.000214 
	C1566.464355,442.408539 1569.374756,451.646576 1575.310913,459.689758 
	C1584.378540,471.975800 1596.833862,478.731537 1611.879761,481.066376 
	C1631.465820,484.105774 1648.890381,479.218628 1663.947632,466.591309 
	C1667.635498,463.498535 1669.825806,458.665161 1672.959839,454.841156 
	C1673.974243,453.603271 1676.081421,452.003204 1677.218506,452.310242 
	C1697.791016,457.864655 1718.293335,463.679016 1738.799683,469.476471 
	C1739.548218,469.688049 1740.185791,470.292297 1741.700684,471.218170 
	C1737.727051,477.405884 1734.236694,483.819244 1729.830688,489.525482 
	C1714.392456,509.519501 1694.381348,523.533142 1670.564453,531.496338 
	C1660.327759,534.919006 1649.353882,536.573486 1638.574707,537.812500 
	C1628.080688,539.018738 1617.358154,539.492554 1606.821411,538.861633 
	C1552.662476,535.618774 1498.567871,503.228577 1484.831177,437.919830 
	C1482.035522,424.628845 1481.083130,411.280304 1482.276611,397.936920 
	C1487.239990,342.440247 1519.535034,295.070343 1580.758301,279.176544 
	C1596.518188,275.085175 1612.817261,274.125458 1629.075317,275.064636 
	C1659.668335,276.831970 1687.504761,286.439667 1710.926758,306.589539 
	C1730.690918,323.592438 1743.266113,345.274353 1750.047119,370.468109 
	C1754.673828,387.658142 1754.082520,405.144318 1753.934082,422.629944 
	C1753.909424,425.536713 1753.075684,428.436646 1752.511108,432.000214 
	C1699.692017,432.000214 1646.596069,432.000214 1593.000000,432.000214 
M1621.500000,382.000366 
	C1637.938110,382.000366 1654.376221,382.000366 1670.865479,382.000366 
	C1667.062012,347.987183 1640.502075,326.714691 1606.383545,333.229553 
	C1580.747314,338.124695 1565.299316,360.992462 1565.630859,382.000366 
	C1583.916626,382.000366 1602.208252,382.000366 1621.500000,382.000366 
z"/>
<path fill="#F3951E" opacity="1.000000" stroke="none" 
	d="
M2885.740479,485.641113 
	C2880.295410,491.863434 2875.379150,498.112030 2869.746094,503.629028 
	C2853.264893,519.771362 2833.233887,529.457397 2811.016113,535.021973 
	C2794.361084,539.193420 2777.344971,540.132507 2760.441650,538.828674 
	C2714.331787,535.272217 2677.189697,515.870300 2653.356934,474.858551 
	C2644.988525,460.457397 2639.973633,444.738495 2638.027100,428.153625 
	C2637.126953,420.486267 2635.804932,412.729767 2636.144775,405.078949 
	C2637.830811,367.090179 2650.459473,333.638489 2679.629883,308.080078 
	C2699.123047,291.000671 2721.949951,280.190460 2747.882324,277.093109 
	C2759.356201,275.722687 2771.048584,274.555054 2782.533936,275.202881 
	C2819.777588,277.303619 2852.033936,290.801575 2877.038574,319.411011 
	C2893.601074,338.361389 2903.582275,360.388977 2906.905029,385.265533 
	C2908.231689,395.196899 2909.233398,405.330200 2908.800049,415.302795 
	C2908.062256,432.282532 2904.749512,448.917847 2897.189453,464.366119 
	C2893.705566,471.484955 2889.707031,478.351898 2885.740479,485.641113 
M2729.959961,450.538422 
	C2740.892090,465.219086 2755.288574,472.357574 2773.810059,472.123383 
	C2793.643799,471.872589 2807.852051,462.657440 2817.774414,446.283600 
	C2827.971191,429.455872 2828.425537,410.955017 2826.054932,392.048676 
	C2822.090820,360.437653 2796.873535,339.619232 2765.554688,343.112122 
	C2745.633301,345.333893 2732.194092,357.387848 2724.227539,375.034912 
	C2718.351318,388.051147 2716.013428,401.919495 2717.793701,416.564148 
	C2719.274170,428.743011 2722.259521,440.008514 2729.959961,450.538422 
z"/>
<path fill="#F3951E" opacity="1.000000" stroke="none" 
	d="
M2584.261719,300.755798 
	C2593.303711,313.644531 2598.702637,327.586121 2599.946045,342.934814 
	C2600.918213,354.937317 2601.856689,366.982452 2601.909180,379.012604 
	C2602.126465,428.669495 2602.000000,478.327881 2602.000000,527.985718 
	C2602.000000,529.791016 2602.000000,531.596252 2602.000000,533.699341 
	C2575.628418,533.699341 2549.576904,533.699341 2523.019531,533.699341 
	C2523.019531,531.791626 2523.019775,530.009033 2523.019531,528.226501 
	C2523.013184,480.068420 2523.222168,431.908356 2522.772217,383.754425 
	C2522.703613,376.395233 2520.641846,368.604553 2517.672119,361.813690 
	C2510.923340,346.380920 2492.576660,340.611877 2475.888184,347.552673 
	C2457.444580,355.223328 2444.383057,368.213623 2436.845703,386.697327 
	C2436.195312,388.292419 2436.035156,390.180847 2436.033447,391.933350 
	C2435.990967,437.258575 2436.000000,482.583862 2436.000000,527.909119 
	C2436.000000,529.721497 2436.000000,531.533813 2436.000000,533.672241 
	C2409.680908,533.672241 2383.626465,533.672241 2357.000000,533.672241 
	C2357.000000,531.884155 2357.000000,530.111206 2357.000000,528.338318 
	C2357.000000,447.685974 2357.043945,367.033569 2356.893066,286.381531 
	C2356.883789,281.416382 2358.043701,279.806335 2363.227051,279.877472 
	C2384.550293,280.170258 2405.879883,279.999939 2427.753174,279.999939 
	C2427.753174,292.980713 2427.753174,305.853943 2427.753174,319.129791 
	C2433.450928,313.224640 2438.404785,307.505890 2443.959717,302.447418 
	C2458.376953,289.318298 2475.638428,281.440857 2494.635986,278.217224 
	C2507.285156,276.070801 2520.317627,274.891815 2533.123047,275.253723 
	C2553.605225,275.832642 2571.320557,283.479553 2584.261719,300.755798 
z"/>
<path fill="#F3951E" opacity="1.000000" stroke="none" 
	d="
M1844.971191,288.909454 
	C1860.874023,281.152802 1877.317383,277.198273 1894.575317,275.754944 
	C1919.260010,273.690582 1943.383911,275.631927 1966.451904,284.999542 
	C1994.143921,296.244965 2014.901855,315.327087 2028.539429,342.016113 
	C2028.753418,342.434906 2028.813599,342.932251 2028.979858,343.513153 
	C2004.741699,350.966705 1980.596802,358.409546 1956.435181,365.797607 
	C1953.572388,366.672974 1951.521851,365.656036 1949.771240,363.031952 
	C1940.157349,348.621155 1925.959473,342.038757 1909.259766,342.206299 
	C1889.060181,342.408875 1872.544067,351.255798 1863.121094,369.446594 
	C1848.827271,397.040649 1849.383911,424.841797 1867.246338,450.804352 
	C1876.718506,464.571991 1890.666382,471.675781 1907.879272,472.102081 
	C1920.484863,472.414307 1931.741211,469.223328 1941.497803,461.358002 
	C1944.810181,458.687653 1947.876221,455.428040 1950.180664,451.871307 
	C1952.469727,448.338440 1954.328613,447.441162 1958.595825,448.798340 
	C1981.858521,456.197357 2005.259766,463.160675 2029.199829,470.452484 
	C2028.735352,472.159210 2028.569336,473.941650 2027.802490,475.410309 
	C2017.356079,495.416626 2001.869385,510.567993 1982.479248,521.820923 
	C1969.592407,529.299683 1955.670532,534.423340 1941.043823,536.777771 
	C1924.729614,539.403992 1908.261719,539.717102 1891.670166,538.159058 
	C1866.368530,535.782959 1843.755859,526.955688 1823.435059,512.019714 
	C1798.286255,493.535339 1782.573486,468.541168 1776.231445,438.327850 
	C1767.159546,395.109985 1775.168701,355.367371 1803.707520,320.623199 
	C1814.953003,306.932373 1828.911621,296.881897 1844.971191,288.909454 
z"/>
<path fill="#0470B6" opacity="1.000000" stroke="none" 
	d="
M93.000092,240.000000 
	C93.000336,225.008118 93.040581,210.516052 92.968163,196.024536 
	C92.953094,193.010117 93.218636,190.927383 97.147591,190.946213 
	C121.966385,191.065186 146.785995,191.013306 171.605316,191.033386 
	C172.233948,191.033890 172.862442,191.213303 173.728760,191.345581 
	C173.728760,305.401276 173.728760,419.278687 173.728760,533.578125 
	C147.084488,533.578125 120.387222,533.578125 93.000092,533.578125 
	C93.000092,435.915039 93.000092,338.207520 93.000092,240.000000 
z"/>
<path fill="#F3951E" opacity="1.000000" stroke="none" 
	d="
M1393.988892,475.124725 
	C1398.379883,480.398010 1400.585693,481.126221 1404.678101,478.653595 
	C1408.121704,476.572968 1409.396606,470.586365 1407.086304,467.345520 
	C1404.967163,464.372833 1398.359253,463.502747 1396.038452,466.589020 
	C1393.192871,470.372955 1389.666870,470.064819 1385.456665,469.449402 
	C1385.012207,455.526520 1385.048828,442.130096 1384.950195,428.734589 
	C1384.936279,426.844727 1384.262695,424.959747 1383.894531,423.072510 
	C1378.080078,423.048187 1372.262817,422.905151 1366.452515,423.047729 
	C1363.383423,423.123047 1361.822754,422.350006 1361.944946,418.898895 
	C1362.149414,413.123566 1362.000854,407.335785 1362.000854,401.008392 
	C1372.265625,401.008392 1382.176880,400.964325 1392.086182,401.081177 
	C1393.008911,401.092072 1394.075195,401.967499 1394.809937,402.705353 
	C1398.846924,406.760284 1403.074707,407.209595 1406.454468,403.829102 
	C1408.680176,401.602936 1408.783569,395.453217 1406.631836,393.283142 
	C1403.107910,389.729218 1398.898193,390.163269 1393.890503,394.755585 
	C1383.154785,394.971130 1373.157959,394.951813 1363.100342,394.471649 
	C1363.058594,332.367615 1363.077881,270.724457 1363.097046,209.081314 
	C1365.893799,209.081314 1368.690552,209.081314 1371.766479,209.081314 
	C1371.854126,210.631866 1371.990112,211.921478 1371.990601,213.211151 
	C1372.002563,244.877243 1372.029541,276.543427 1371.919434,308.209167 
	C1371.913452,309.922028 1371.171143,312.034485 1370.025024,313.266205 
	C1366.515625,317.037598 1365.955933,321.539795 1369.074585,324.775513 
	C1371.860596,327.666077 1376.468506,327.887115 1379.484863,325.274872 
	C1382.940308,322.282349 1382.970825,317.917267 1379.553345,313.827484 
	C1379.342651,313.575317 1379.051880,313.389893 1378.469238,312.510712 
	C1378.105347,281.952118 1378.070923,252.056168 1378.036377,222.160217 
	C1380.527222,222.108444 1383.017822,222.042816 1385.508911,222.014435 
	C1386.149414,222.007141 1386.791138,222.117157 1387.745117,222.200684 
	C1387.833374,223.731384 1387.989014,225.175369 1387.989380,226.619370 
	C1388.002319,271.018219 1388.018921,315.417084 1387.931030,359.815765 
	C1387.927490,361.582275 1387.402832,363.799469 1386.274292,365.029907 
	C1382.438232,369.212219 1381.937500,373.200256 1385.370605,376.631439 
	C1388.534912,379.793976 1393.361694,379.677368 1396.380859,376.365540 
	C1399.428589,373.022308 1398.601074,368.323029 1394.145386,364.141632 
	C1393.966187,349.983215 1394.001221,336.572113 1394.036377,323.161041 
	C1398.751221,322.847443 1403.398193,322.114258 1407.036377,326.632751 
	C1409.474121,329.660400 1412.969849,327.916046 1414.810425,325.991577 
	C1416.598145,324.122375 1418.047852,320.747559 1417.665894,318.349335 
	C1417.344238,316.330719 1414.453369,313.980408 1412.204102,313.193146 
	C1409.244873,312.157379 1406.549805,313.572021 1403.852295,315.917999 
	C1401.815918,317.689026 1397.958862,317.366882 1394.465454,317.449524 
	C1394.012207,285.709564 1394.026489,254.496399 1393.952637,223.283432 
	C1393.947754,221.220261 1393.270264,219.158676 1392.905518,217.096344 
	C1389.925171,217.064240 1386.944702,217.010773 1383.964355,217.004272 
	C1376.981567,216.989029 1376.981567,216.998138 1377.537476,209.488464 
	C1391.941895,208.958267 1405.829346,208.886002 1419.716675,208.813751 
	C1419.716675,208.813751 1419.862183,209.003235 1419.964722,209.064499 
	C1420.044800,303.897278 1420.021973,398.668762 1420.000488,493.440277 
	C1419.997437,506.743744 1420.000000,520.047241 1420.000000,533.674561 
	C1391.352905,533.674561 1362.974731,533.674561 1334.000000,533.674561 
	C1334.000000,425.810089 1334.000000,317.946014 1334.000244,209.624207 
	C1341.442505,209.166428 1348.884521,209.166428 1356.662842,209.166428 
	C1356.662842,216.939011 1356.662842,224.638794 1356.662842,233.011093 
	C1352.172852,233.011093 1347.599243,233.011093 1342.227539,233.293457 
	C1341.286621,235.722260 1341.020630,237.868622 1341.019531,240.015106 
	C1340.995972,289.143127 1341.009888,338.271179 1340.992920,387.399231 
	C1340.989990,395.890320 1340.878662,404.381378 1340.817383,412.872437 
	C1335.149658,417.633270 1334.593872,419.909760 1338.059326,424.169464 
	C1340.894165,427.654205 1345.940063,428.270966 1349.145630,425.524719 
	C1352.065308,423.023407 1351.991943,417.201630 1349.392090,414.032745 
	C1348.191528,412.569427 1347.101196,410.465668 1347.097534,408.650024 
	C1346.985596,352.092438 1347.014282,295.534607 1347.529907,238.498840 
	C1358.528442,238.090500 1356.945312,236.831116 1356.974854,247.063766 
	C1357.053589,274.388733 1357.014038,301.714050 1356.998657,329.039246 
	C1356.972900,374.691223 1356.929688,420.343231 1356.893677,465.995209 
	C1354.153564,468.675232 1349.785889,471.117126 1353.182617,475.649902 
	C1354.946899,478.004181 1358.059326,480.134094 1360.867798,480.626862 
	C1362.568604,480.925262 1366.069580,478.233887 1366.606812,476.290253 
	C1367.548950,472.880768 1368.326782,468.550934 1363.392090,465.660767 
	C1363.039551,452.712921 1363.043701,440.394592 1363.047852,428.076233 
	C1368.174438,428.076233 1373.301147,428.076233 1379.000000,428.076233 
	C1379.000000,430.935699 1379.000000,433.537842 1379.000000,436.139984 
	C1379.000000,455.273468 1379.048218,474.407318 1378.917114,493.539886 
	C1378.905396,495.256989 1378.172241,497.380280 1377.019043,498.602417 
	C1373.340576,502.500580 1372.782959,506.434479 1375.959351,509.719025 
	C1378.995117,512.858154 1383.638794,513.118286 1386.698853,510.320557 
	C1390.084106,507.225403 1390.004883,502.804718 1386.483521,498.910431 
	C1386.263428,498.667084 1385.968872,498.491058 1385.374268,497.623047 
	C1385.000000,492.666138 1384.903687,488.369537 1384.932251,484.073700 
	C1384.999512,473.966370 1383.899414,475.194275 1393.988892,475.124725 
z"/>
<path fill="#F1941E" opacity="1.000000" stroke="none" 
	d="
M82.059372,112.146584 
	C82.510918,107.958405 82.509811,104.104797 83.482880,100.515274 
	C85.955597,91.393776 90.116776,82.941170 96.686150,76.122139 
	C105.566620,66.904182 116.796402,60.728104 129.412674,60.311073 
	C148.114929,59.692852 164.352936,65.177498 175.687866,82.356750 
	C182.084839,92.052002 184.960815,102.025604 184.790909,112.906097 
	C184.641861,122.450020 182.514572,131.649323 176.184784,139.800781 
	C172.913589,144.013367 170.651627,148.945282 165.792099,151.704041 
	C160.698334,154.595825 155.810669,158.186234 150.346741,160.032440 
	C126.412720,168.119461 101.946007,158.180237 89.484161,137.891357 
	C84.813858,130.287735 82.315704,121.682304 82.059372,112.146584 
M89.016151,124.557693 
	C89.191254,124.863762 89.366356,125.169838 89.753494,125.990631 
	C90.137802,126.355667 90.522110,126.720695 91.051697,127.659241 
	C91.482086,128.316528 91.912483,128.973816 92.839546,130.251053 
	C93.346916,130.495026 93.854279,130.738983 94.361649,130.982956 
	C93.972366,130.260803 93.583084,129.538666 93.062408,128.247421 
	C92.603264,127.626511 92.144119,127.005600 91.347588,125.936745 
	C90.926643,125.594788 90.505699,125.252823 90.022942,124.365265 
	C89.820473,124.071167 89.617996,123.777077 89.188919,122.935555 
	C88.879128,122.745506 88.569336,122.555458 88.259544,122.365410 
	C88.501160,122.915970 88.742775,123.466537 89.016151,124.557693 
M178.279282,128.210709 
	C170.598160,132.507172 162.653809,133.499649 153.798096,132.181564 
	C134.933304,129.373749 119.569580,120.563263 107.255249,106.495338 
	C100.633377,98.930496 95.865715,90.130852 97.072601,79.214798 
	C96.080574,81.514336 95.179260,83.906532 95.054306,86.338623 
	C94.512817,96.877831 100.017990,104.919182 106.712440,112.118591 
	C119.625938,126.006157 135.669785,134.386414 154.468246,136.726273 
	C163.792862,137.886948 173.004486,136.776215 179.881378,128.107285 
	C179.833740,127.850525 179.786102,127.593758 179.738480,127.336990 
	C179.478699,127.543091 179.218918,127.749199 178.279282,128.210709 
M181.336304,110.222824 
	C179.214798,112.150955 177.408234,114.830109 174.916367,115.875137 
	C164.974854,120.044365 154.959824,118.420547 145.182846,114.960838 
	C135.013443,111.362274 126.095345,105.685188 118.989296,97.507629 
	C111.992180,89.455429 106.638832,80.761772 111.441582,68.519112 
	C105.026718,74.534508 104.034569,81.424248 108.290787,89.577400 
	C116.368584,105.051140 129.629166,114.387581 145.758743,119.977951 
	C154.612381,123.046547 163.654205,124.597023 172.853577,121.264023 
	C179.142776,118.985397 181.777023,115.665054 182.616745,110.141914 
	C182.724518,109.569901 182.832275,108.997887 182.940048,108.425873 
	C182.739456,108.386955 182.538864,108.348038 182.338272,108.309113 
	C182.225601,108.872841 182.112930,109.436562 181.336304,110.222824 
M128.414856,85.982239 
	C123.156372,78.404053 120.269920,70.812088 129.933167,62.466110 
	C119.578934,66.798325 116.623970,73.185638 120.994385,81.432312 
	C130.381836,99.145805 145.569778,107.717308 165.538345,108.013298 
	C173.233643,108.127357 181.031754,102.428909 178.402100,92.097717 
	C176.694855,102.243889 169.057419,104.008690 162.113525,103.655540 
	C148.820709,102.979507 137.521317,96.993042 128.414856,85.982239 
M109.170067,132.372894 
	C120.682220,141.002182 133.570374,146.352814 147.716034,148.918030 
	C154.912430,150.223038 166.599808,147.561371 170.703491,143.076675 
	C152.409866,149.202972 135.994690,143.992798 120.350212,135.193054 
	C104.469879,126.260628 92.091255,114.126007 87.058807,95.691940 
	C87.329948,99.961906 87.836777,104.064751 89.272575,107.811615 
	C93.120483,117.853203 100.508430,125.220520 109.170067,132.372894 
M162.961960,88.983772 
	C152.984177,89.872818 145.162582,86.183235 139.878983,77.672989 
	C136.823822,72.752037 139.277435,67.383675 144.884293,66.049911 
	C145.862747,65.817162 146.884491,65.766403 147.886230,65.631584 
	C142.929016,64.946014 137.750259,64.187584 134.903381,69.566414 
	C132.010727,75.031738 135.587753,79.059540 138.786179,82.718849 
	C144.675018,89.456276 152.428391,93.239159 161.251205,93.584801 
	C164.295334,93.704048 168.705582,91.628059 170.199509,89.164696 
	C171.605682,86.846024 169.992340,82.696152 169.751160,79.865280 
	C167.569916,83.210793 165.697006,86.083412 162.961960,88.983772 
M143.194260,155.093948 
	C126.892754,153.991974 113.495476,145.936417 100.550438,136.798111 
	C108.694763,147.896194 135.285477,159.588120 151.444931,156.414108 
	C148.458755,156.049820 146.206635,155.775101 143.194260,155.093948 
M157.660629,75.126511 
	C156.262070,74.276070 154.953552,73.114906 153.435974,72.675079 
	C152.256180,72.333145 150.815765,72.890457 149.491180,73.048096 
	C149.792374,74.333443 149.715103,75.928696 150.466034,76.845772 
	C152.677414,79.546387 155.556152,80.787331 159.602524,79.413460 
	C159.072098,78.058365 158.619583,76.902306 157.660629,75.126511 
M97.969398,133.435394 
	C97.482124,133.095215 96.994843,132.755051 96.507561,132.414871 
	C95.885101,133.050781 95.262634,133.686691 94.640175,134.322601 
	C95.664635,135.341354 96.689095,136.360107 97.713554,137.378860 
	C98.355415,136.752441 98.997276,136.126038 99.639145,135.499619 
	C99.294968,135.019714 98.950790,134.539810 97.969398,133.435394 
z"/>
<path fill="#000000" opacity="1.000000" stroke="none" 
	d="
M1186.747070,385.407623 
	C1192.015137,404.826599 1191.949097,423.584534 1182.381104,441.287628 
	C1171.593140,461.247833 1154.920898,472.101807 1131.760010,472.007111 
	C1107.905884,471.909607 1091.033691,460.407349 1079.668457,440.048828 
	C1078.604980,438.144012 1078.098022,435.691284 1078.071777,433.484100 
	C1077.923096,420.999298 1078.280884,408.502838 1077.882935,396.028961 
	C1077.679810,389.667664 1078.936646,384.004974 1082.110352,378.591919 
	C1089.223145,366.460754 1098.207153,356.141815 1110.429688,348.897064 
	C1131.316650,336.516602 1155.687866,342.259308 1171.302856,358.579529 
	C1178.560303,366.164948 1183.173706,375.247406 1186.747070,385.407623 
z"/>
<path fill="#A28681" opacity="1.000000" stroke="none" 
	d="
M1357.262939,465.764648 
	C1356.929688,420.343231 1356.972900,374.691223 1356.998657,329.039246 
	C1357.014038,301.714050 1357.053589,274.388733 1356.974854,247.063766 
	C1356.945312,236.831116 1358.528442,238.090500 1347.593262,238.037384 
	C1350.158081,237.741806 1353.164185,237.314835 1356.180664,237.220718 
	C1356.740601,237.203262 1357.662354,238.450714 1357.851440,239.248367 
	C1358.151367,240.514984 1357.996826,241.894440 1357.996826,243.226166 
	C1358.000366,315.678223 1358.002319,388.130280 1357.984619,460.582336 
	C1357.984131,462.232941 1357.754639,463.883484 1357.262939,465.764648 
z"/>
<path fill="#6B7B9F" opacity="1.000000" stroke="none" 
	d="
M1362.785400,209.356689 
	C1363.077881,270.724457 1363.058594,332.367615 1363.067383,394.701050 
	C1363.095215,395.391296 1363.103271,395.855011 1363.103271,395.855011 
	C1362.735962,394.135101 1362.049072,392.415497 1362.047485,390.695282 
	C1361.991821,331.816406 1361.997925,272.937531 1362.021240,214.058655 
	C1362.021851,212.583054 1362.316406,211.107590 1362.785400,209.356689 
z"/>
<path fill="#A28681" opacity="1.000000" stroke="none" 
	d="
M1341.183716,412.652771 
	C1340.878662,404.381378 1340.989990,395.890320 1340.992920,387.399231 
	C1341.009888,338.271179 1340.995972,289.143127 1341.019531,240.015106 
	C1341.020630,237.868622 1341.286621,235.722260 1341.768066,233.326218 
	C1342.071167,290.718628 1342.040161,348.360687 1341.980957,406.002686 
	C1341.978760,408.146301 1341.699951,410.289612 1341.183716,412.652771 
z"/>
<path fill="#CE8E5A" opacity="1.000000" stroke="none" 
	d="
M1392.943359,217.556305 
	C1393.270264,219.158676 1393.947754,221.220261 1393.952637,223.283432 
	C1394.026489,254.496399 1394.012207,285.709564 1394.027588,317.380859 
	C1393.691284,316.189362 1393.048218,314.540314 1393.044678,312.889954 
	C1392.978516,281.265472 1392.987549,249.640854 1392.943359,217.556305 
z"/>
<path fill="#CD8E5A" opacity="1.000000" stroke="none" 
	d="
M1377.642822,222.328476 
	C1378.070923,252.056168 1378.105347,281.952118 1378.182129,312.303436 
	C1377.820435,311.936066 1377.062866,311.113129 1377.063354,310.290649 
	C1377.081299,281.026001 1377.170166,251.761368 1377.642822,222.328476 
z"/>
<path fill="#CE8E5A" opacity="1.000000" stroke="none" 
	d="
M1383.936768,423.534363 
	C1384.262695,424.959747 1384.936279,426.844727 1384.950195,428.734589 
	C1385.048828,442.130096 1385.012207,455.526520 1385.027710,469.380859 
	C1384.691284,468.357666 1384.054932,466.878082 1384.045898,465.394653 
	C1383.962158,451.595520 1383.986328,437.795776 1383.936768,423.534363 
z"/>
<path fill="#6B7B9F" opacity="1.000000" stroke="none" 
	d="
M1419.413330,208.571198 
	C1405.829346,208.886002 1391.941895,208.958267 1377.597534,209.056213 
	C1377.865112,208.741333 1378.590454,208.102814 1379.314331,208.104401 
	C1392.579712,208.133438 1405.844849,208.239182 1419.413330,208.571198 
z"/>
<path fill="#CE8E5A" opacity="1.000000" stroke="none" 
	d="
M1393.642822,323.329346 
	C1394.001221,336.572113 1393.966187,349.983215 1393.908569,363.894348 
	C1393.598267,363.658234 1393.058472,362.921539 1393.059937,362.185852 
	C1393.083618,349.289734 1393.173706,336.393707 1393.642822,323.329346 
z"/>
<path fill="#6A7B9F" opacity="1.000000" stroke="none" 
	d="
M1362.763672,428.118042 
	C1363.043701,440.394592 1363.039551,452.712921 1363.072510,465.497406 
	C1362.789307,465.405243 1362.187378,464.845642 1362.189941,464.288849 
	C1362.245728,452.245667 1362.369141,440.202789 1362.763672,428.118042 
z"/>
<path fill="#BF8B67" opacity="1.000000" stroke="none" 
	d="
M1393.756714,474.769104 
	C1383.899414,475.194275 1384.999512,473.966370 1384.932251,484.073700 
	C1384.903687,488.369537 1385.000000,492.666138 1385.081787,497.423706 
	C1384.735107,495.389679 1384.095337,492.902924 1384.010010,490.397247 
	C1383.835083,485.261414 1383.957397,480.115417 1383.957397,474.413513 
	C1387.382935,474.413513 1390.453735,474.413513 1393.756714,474.769104 
z"/>
<path fill="#CE8E5A" opacity="1.000000" stroke="none" 
	d="
M1363.562744,395.912415 
	C1363.103271,395.855011 1363.095215,395.391296 1363.128174,395.161926 
	C1373.157959,394.951813 1383.154785,394.971130 1393.629639,394.976379 
	C1392.613159,395.307831 1391.121582,395.936768 1389.623535,395.952026 
	C1381.090576,396.038971 1372.556152,395.979523 1363.562744,395.912415 
z"/>
<path fill="#000000" opacity="1.000000" stroke="none" 
	d="
M847.000000,382.000000 
	C823.222534,382.000000 799.945007,382.000000 776.639648,382.000000 
	C779.386414,352.348816 801.160339,332.886963 827.675110,332.084412 
	C855.998474,331.227142 879.057495,349.745697 882.762085,382.000000 
	C870.966492,382.000000 859.233215,382.000000 847.000000,382.000000 
z"/>
<path fill="#000000" opacity="1.000000" stroke="none" 
	d="
M1621.000000,382.000366 
	C1602.208252,382.000366 1583.916626,382.000366 1565.630859,382.000366 
	C1565.299316,360.992462 1580.747314,338.124695 1606.383545,333.229553 
	C1640.502075,326.714691 1667.062012,347.987183 1670.865479,382.000366 
	C1654.376221,382.000366 1637.938110,382.000366 1621.000000,382.000366 
z"/>
<path fill="#000000" opacity="1.000000" stroke="none" 
	d="
M2729.721680,450.266510 
	C2722.259521,440.008514 2719.274170,428.743011 2717.793701,416.564148 
	C2716.013428,401.919495 2718.351318,388.051147 2724.227539,375.034912 
	C2732.194092,357.387848 2745.633301,345.333893 2765.554688,343.112122 
	C2796.873535,339.619232 2822.090820,360.437653 2826.054932,392.048676 
	C2828.425537,410.955017 2827.971191,429.455872 2817.774414,446.283600 
	C2807.852051,462.657440 2793.643799,471.872589 2773.810059,472.123383 
	C2755.288574,472.357574 2740.892090,465.219086 2729.721680,450.266510 
z"/>
<path fill="#050301" opacity="1.000000" stroke="none" 
	d="
M181.957321,109.949486 
	C181.777023,115.665054 179.142776,118.985397 172.853577,121.264023 
	C163.654205,124.597023 154.612381,123.046547 145.758743,119.977951 
	C129.629166,114.387581 116.368584,105.051140 108.290787,89.577400 
	C104.034569,81.424248 105.026718,74.534508 111.441582,68.519112 
	C106.638832,80.761772 111.992180,89.455429 118.989296,97.507629 
	C126.095345,105.685188 135.013443,111.362274 145.182846,114.960838 
	C154.959824,118.420547 164.974854,120.044365 174.916367,115.875137 
	C177.408234,114.830109 179.214798,112.150955 181.659180,110.101021 
	C181.982040,109.979218 181.957321,109.949486 181.957321,109.949486 
z"/>
<path fill="#060401" opacity="1.000000" stroke="none" 
	d="
M179.573685,128.549957 
	C173.004486,136.776215 163.792862,137.886948 154.468246,136.726273 
	C135.669785,134.386414 119.625938,126.006157 106.712440,112.118591 
	C100.017990,104.919182 94.512817,96.877831 95.054306,86.338623 
	C95.179260,83.906532 96.080574,81.514336 97.072601,79.214798 
	C95.865715,90.130852 100.633377,98.930496 107.255249,106.495338 
	C119.569580,120.563263 134.933304,129.373749 153.798096,132.181564 
	C162.653809,133.499649 170.598160,132.507172 178.768616,128.236053 
	C179.257935,128.261383 179.573685,128.549957 179.573685,128.549957 
z"/>
<path fill="#060301" opacity="1.000000" stroke="none" 
	d="
M128.668152,86.241676 
	C137.521317,96.993042 148.820709,102.979507 162.113525,103.655540 
	C169.057419,104.008690 176.694855,102.243889 178.402100,92.097717 
	C181.031754,102.428909 173.233643,108.127357 165.538345,108.013298 
	C145.569778,107.717308 130.381836,99.145805 120.994385,81.432312 
	C116.623970,73.185638 119.578934,66.798325 129.933167,62.466110 
	C120.269920,70.812088 123.156372,78.404053 128.668152,86.241676 
z"/>
<path fill="#0A0601" opacity="1.000000" stroke="none" 
	d="
M108.867996,132.178543 
	C100.508430,125.220520 93.120483,117.853203 89.272575,107.811615 
	C87.836777,104.064751 87.329948,99.961906 87.058807,95.691940 
	C92.091255,114.126007 104.469879,126.260628 120.350212,135.193054 
	C135.994690,143.992798 152.409866,149.202972 170.703491,143.076675 
	C166.599808,147.561371 154.912430,150.223038 147.716034,148.918030 
	C133.570374,146.352814 120.682220,141.002182 108.867996,132.178543 
z"/>
<path fill="#080501" opacity="1.000000" stroke="none" 
	d="
M163.393021,88.969910 
	C165.697006,86.083412 167.569916,83.210793 169.751160,79.865280 
	C169.992340,82.696152 171.605682,86.846024 170.199509,89.164696 
	C168.705582,91.628059 164.295334,93.704048 161.251205,93.584801 
	C152.428391,93.239159 144.675018,89.456276 138.786179,82.718849 
	C135.587753,79.059540 132.010727,75.031738 134.903381,69.566414 
	C137.750259,64.187584 142.929016,64.946014 147.886230,65.631584 
	C146.884491,65.766403 145.862747,65.817162 144.884293,66.049911 
	C139.277435,67.383675 136.823822,72.752037 139.878983,77.672989 
	C145.162582,86.183235 152.984177,89.872818 163.393021,88.969910 
z"/>
<path fill="#0F0902" opacity="1.000000" stroke="none" 
	d="
M143.574371,155.297150 
	C146.206635,155.775101 148.458755,156.049820 151.444931,156.414108 
	C135.285477,159.588120 108.694763,147.896194 100.550438,136.798111 
	C113.495476,145.936417 126.892754,153.991974 143.574371,155.297150 
z"/>
<path fill="#070401" opacity="1.000000" stroke="none" 
	d="
M157.913849,75.436378 
	C158.619583,76.902306 159.072098,78.058365 159.602524,79.413460 
	C155.556152,80.787331 152.677414,79.546387 150.466034,76.845772 
	C149.715103,75.928696 149.792374,74.333443 149.491180,73.048096 
	C150.815765,72.890457 152.256180,72.333145 153.435974,72.675079 
	C154.953552,73.114906 156.262070,74.276070 157.913849,75.436378 
z"/>
<path fill="#0F0902" opacity="1.000000" stroke="none" 
	d="
M98.288010,133.747650 
	C98.950790,134.539810 99.294968,135.019714 99.639145,135.499619 
	C98.997276,136.126038 98.355415,136.752441 97.713554,137.378860 
	C96.689095,136.360107 95.664635,135.341354 94.640175,134.322601 
	C95.262634,133.686691 95.885101,133.050781 96.507561,132.414871 
	C96.994843,132.755051 97.482124,133.095215 98.288010,133.747650 
z"/>
<path fill="#0F0902" opacity="1.000000" stroke="none" 
	d="
M92.342873,129.631104 
	C91.912483,128.973816 91.482086,128.316528 91.177437,127.201370 
	C91.430435,126.623909 91.557701,126.504303 91.684975,126.384689 
	C92.144119,127.005600 92.603264,127.626511 92.914848,128.735077 
	C92.625824,129.358841 92.484352,129.494980 92.342873,129.631104 
z"/>
<path fill="#0F0902" opacity="1.000000" stroke="none" 
	d="
M92.980545,129.019623 
	C93.583084,129.538666 93.972366,130.260803 94.361649,130.982956 
	C93.854279,130.738983 93.346916,130.495026 92.591209,129.941071 
	C92.484352,129.494980 92.625824,129.358841 92.980545,129.019623 
z"/>
<path fill="#0F0902" opacity="1.000000" stroke="none" 
	d="
M91.104797,126.914612 
	C90.522110,126.720695 90.137802,126.355667 89.784149,125.592834 
	C89.814812,125.195030 90.084755,124.910866 90.084755,124.910866 
	C90.505699,125.252823 90.926643,125.594788 91.516281,126.160721 
	C91.557701,126.504303 91.430435,126.623909 91.104797,126.914612 
z"/>
<path fill="#0F0902" opacity="1.000000" stroke="none" 
	d="
M88.984390,124.017097 
	C88.742775,123.466537 88.501160,122.915970 88.259544,122.365410 
	C88.569336,122.555458 88.879128,122.745506 89.192513,123.342644 
	C89.196106,123.749733 88.984390,124.017097 88.984390,124.017097 
z"/>
<path fill="#050301" opacity="1.000000" stroke="none" 
	d="
M181.991150,109.989746 
	C182.112930,109.436562 182.225601,108.872841 182.338272,108.309113 
	C182.538864,108.348038 182.739456,108.386955 182.940048,108.425873 
	C182.832275,108.997887 182.724518,109.569901 182.287033,110.045700 
	C181.957321,109.949486 181.982040,109.979218 181.991150,109.989746 
z"/>
<path fill="#060401" opacity="1.000000" stroke="none" 
	d="
M179.108536,128.108337 
	C179.218918,127.749199 179.478699,127.543091 179.738464,127.336990 
	C179.786102,127.593758 179.833740,127.850525 179.727539,128.328613 
	C179.573685,128.549957 179.257935,128.261383 179.108536,128.108337 
z"/>
<path fill="#0F0902" opacity="1.000000" stroke="none" 
	d="
M89.678131,125.335472 
	C89.366356,125.169838 89.191254,124.863762 89.000275,124.287399 
	C88.984390,124.017097 89.196106,123.749733 89.305817,123.616364 
	C89.617996,123.777077 89.820473,124.071167 90.053848,124.638062 
	C90.084755,124.910866 89.814812,125.195030 89.678131,125.335472 
z"/>
</svg>